<?xml version="1.0" encoding="utf-8"?>
<!-- Generator: Adobe Illustrator 23.0.0, SVG Export Plug-In . SVG Version: 6.00 Build 0)  -->
<svg version="1.1" id="Layer_1" xmlns="http://www.w3.org/2000/svg" xmlns:xlink="http://www.w3.org/1999/xlink" x="0px" y="0px"
	 viewBox="0 0 92 126" style="enable-background:new 0 0 92 126;" xml:space="preserve">
<style type="text/css">
	.st0{fill:#101010;}
	.st1{fill:#8B8B8A;}
	.st2{fill:#E3E2E2;}
	.st3{fill:#FFFFFF;}
</style>
<g>
	<g id="m68AfW_1_">
		<g>
			<path class="st0" d="M89.8,27.28c1.08-3,1.49-6.04,0.26-9.11c-0.93-2.32-2.13-4.5-3.36-6.67c-1.68-2.97-4.04-5.06-7.19-6.43
				C76.74,3.85,73.84,3,71.04,1.86c-0.86-0.35-1.83-0.38-2.75-0.1c-2.06,0.62-4.14,1.15-6.26,1.53c-0.94,0.17-1.89,0.27-2.84,0.43
				c-2.29,0.37-3.82,1.97-5.37,3.51c-1.08,1.08-1.64,2.53-2.55,3.73c-0.02,0.21-0.11,0.35-0.33,0.37c-0.13,0.22-0.26,0.44-0.39,0.66
				c-0.03,0.32-0.19,0.57-0.45,0.76c-0.33,0.67-0.65,1.35-0.98,2.02c-0.2,0.63-0.29,1.3-0.81,1.79l-0.23,0.49
				c0.06,0.2-0.01,0.35-0.17,0.46c-0.13,0.31-0.25,0.62-0.38,0.93c0.03,0.3-0.05,0.55-0.28,0.74c-0.03,0.1-0.07,0.2-0.1,0.3
				c0.15,0.53,0.04,0.98-0.26,1.47c-0.58,0.95-0.82,2.03-1.07,3.11c-0.07,0.3-0.08,0.64-0.31,0.89c-0.02,0.1-0.04,0.2-0.06,0.3
				c0.03,0.51,0.02,1-0.29,1.44c-0.02,0.22-0.03,0.44-0.05,0.66c-0.09,0.96-0.18,1.91-0.46,2.84c-0.01,0.17-0.02,0.33-0.02,0.5
				c-0.06,0.47,0.19,0.98-0.14,1.42c0,0.12,0,0.23,0,0.35c0.17,0.86,0.02,1.72-0.02,2.57c-0.02,0.43,0.12,0.66,0.47,0.81
				c0.58,0.25,1.08,0.69,1.74,0.76c0.54,0.06,0.69,0.49,0.83,0.89c0.28,0.75,0.3,1.55,0.24,2.33c-0.17,2.14-0.1,4.29-0.18,6.43
				c-0.03,0.9-0.2,1.79-0.11,2.69c0.01,0.06,0,0.12-0.01,0.17c-0.39,1.34-0.4,2.43-0.22,3.95c0.11,0.98,0,1.98,0.08,2.96
				c0.16,2.04,1.05,3.74,2.55,5.14c1.11,1.04,2.2,2.1,3.33,3.13c0.45,0.41,1,0.71,1.42,1.13c1.1,1.1,1.99,2.33,2.73,3.72
				c0.3,0.57,0.59,1.27,1.31,1.68c0.42,0.24,0.89,0.74,1.15,1.34c0.24,0.55,0.6,1.34,1.35,1.26c0.64-0.07,1.1,0.72,1.59,0.28
				c0.53,1.83-1.04,3.04-1.41,4.64c-0.05,0.23-0.19,0.54,0.02,0.65c1.18,0.56,1.07,1.85,1.57,2.78c0.24,0.44,0.49,0.76,0.91,0.97
				c1.4,0.7,2.13,2.22,1.93,3.8c-0.21,1.66-0.14,3.35-0.04,5.01c0.15,2.38,0.94,4.66,1.24,7.03c0.2,1.67-0.05,3.25-0.48,4.83
				c-0.54,2.04-1.11,4.07-1.89,6.03c-0.13,0.32-0.23,0.65-0.57,0.92c-0.86-1.11-1.22-2.43-1.72-3.69
				c-1.69-4.24-2.71-8.71-4.61-12.88c-1.16-2.53-3.01-4.55-4.84-6.56c-0.67-0.73-0.93-1.48-0.97-2.4c-0.1-1.86-0.99-3.32-1.98-4.89
				c-1.72-2.74-4.25-4.85-5.7-7.75c-0.6-1.21-1.17-2.43-1.37-3.82c-0.16-1.15,0.04-2.21,0.39-3.24c0.43-1.26,0.91-2.49,0.77-3.86
				c-0.08-0.81,0.51-1.54,0.34-2.38c-0.06-0.3,0.05-0.65-0.24-0.89c-0.02,0.37-0.25,0.46-0.59,0.48c-0.87,0.04-1.74,0.18-2.61,0.16
				c-0.89-0.02-1.48,0.36-1.96,1.05c-2.14,3.07-4.32,6.13-6.04,9.45c-0.53,1.02-1.22,1.51-2.17,1.88c-0.05,0.02-0.11,0.03-0.17,0.05
				c-4.16,1.8-8.27,3.68-12.03,6.28c-2.55,1.76-5.17,3.43-7.78,5.11c-1.4,0.9-2.73,1.85-3.85,3.09c-2.58,2.87-4.41,6.18-5.79,9.76
				C1,95.52,1.03,95.87,0.63,95.85v28.29c22,0,44-0.01,66-0.01c5.12,0,10.24,0,15.37,0.01c0.41,0,0.75,0.03,0.9-0.53
				c0.87-3.41,0.98-6.73-1.01-9.85c-0.27-0.42-0.25-0.83-0.11-1.25c0.45-1.35,0.43-2.74,0.48-4.14c0.06-1.91,0.24-3.81,0.2-5.73
				c-0.05-3.22,0.64-6.4,0.33-9.66c-0.32-3.42-1.41-6.33-4.18-8.46c-0.41-0.32-0.5-0.64-0.41-1.12c0.17-0.89-0.06-1.64-0.78-2.26
				c-0.66-0.56-1.32-1.13-1.79-1.88c-0.7-1.1-1.45-2.18-2.18-3.26c-0.76-1.11-1.54-2.21-2.31-3.31c-0.68-0.68-0.65-1.79-1.44-2.42
				c-0.19-0.15,0.1-0.34,0.26-0.45c0.29-0.2,0.56-0.41,0.64-0.78c-0.04-0.04-0.09-0.08-0.13-0.12c-0.81,0.48-1.87-0.12-2.63,0.63
				c-0.12,0.12-0.23,0.02-0.34-0.24c-0.22-0.54-0.32-1.15-0.71-1.63c-0.51-0.63-0.53-1.38-0.16-2.02c0.39-0.67,0.36-1.6,1.22-2.04
				c-0.21-0.06-0.38-0.14-0.56-0.17c-1.11-0.18-1.8,0.66-1.46,1.79c0.44,1.48,0.16,2.61-1.06,3.46c-0.44,0.3-1.12,0.26-1.69,0.37
				c-0.08-0.46-0.91-0.44-0.7-1.09c-0.05,0.01-0.1,0.02-0.14,0.04c-0.44,0.27-0.67,1.1-1.44,0.52c-0.11-0.08-0.38,0.03-0.57,0.06
				c0.11-0.26,0.05-0.48-0.16-0.66c-0.04-0.03-0.09-0.07-0.13-0.1c-0.27-0.03-0.74,0.47-0.74-0.3c0-0.22-0.27-0.25-0.48-0.28
				c-0.33-0.05-0.85,0.14-0.77-0.53c0-0.03-0.07-0.12-0.1-0.12c-1.52,0.21-1.92-1.36-2.99-1.91c-1.25-0.64-2.21-1.74-3.09-2.86
				c-1.02-1.29-2.06-2.57-3.08-3.86c-0.46-0.59-0.63-1.53-0.66-2.32c-0.05-1.18-0.22-2.33-0.37-3.48c-0.04-0.3,0.03-0.57,0.18-0.84
				c0.36-0.69,0.37-1.43,0.46-2.19c0.04-0.31,0.31-0.66,0.26-1.1c-0.05-0.41-0.11-0.8-0.25-1.19c-0.1-0.27-0.39-0.6,0.22-0.68
				c0.19-0.03,0.36-0.33,0.25-0.49c-0.7-0.99,0.12-1.99-0.03-3c-0.07-0.48,0.12-1.02,0-1.54c-0.04-0.16-0.09-0.37-0.03-0.51
				c0.43-1.03,0.27-2.17,0.67-3.22c0.56-1.46,0.75-3.04,1.7-4.37c0.36-0.5,0.49-1.15,1.09-1.5c0.19-0.11,0.14-0.37,0.16-0.57
				c0.05-0.45-0.36-1.07,0.46-1.23c-0.08-1.44,1.48-2.15,1.53-3.67c0.03-0.96,0.6-2.04,1.09-2.99c0.34-0.67,0.73-0.65,1.19-0.02
				c0.72,1,1.12,2.16,1.7,3.23c0.91,1.66,1.9,3.27,3.29,4.58c2.06,1.93,4.58,2.81,7.33,3.11c2.4,0.27,4.8,0.49,7.2,0.74
				c1.84,0.19,3.1,1.17,3.81,2.85c0.12,0.27,0.24,0.39,0.53,0.47c0.41,0.1,0.69,0.44,0.86,0.82c0.28,0.66,0.02,1.03-0.69,0.96
				c-1.49-0.15-2.95,0.16-4.4,0.38c-1.58,0.25-3.4,2.33-3.45,3.69c-0.03,0.73,0.36,1.25,0.77,1.83c0.14-0.44,0.02-0.79-0.04-1.15
				c-0.08-0.48,0.14-0.85,0.67-0.73c0.65,0.14,1.26-0.1,1.89-0.05c0,0,0,0,0,0c0.71,0.54,1.46,0.98,2.28,1.37
				c0.62,0.3,1.31,0.01,1.87,0.53c0.46,0.42,0.79-0.46,1.29-0.43c0.05-0.15,0.11-0.3,0.16-0.46c-0.4-0.52-1.03-0.9-0.81-1.76
				c0.13-0.52-0.39-0.92-0.91-0.76c-0.19,0.06-0.34,0.05-0.49-0.04c-1.03-0.66-2.21-0.64-3.36-0.65c-0.51-0.01-0.99,0.19-0.89,0.93
				c0.03,0.26,0.34,0.71-0.23,0.86c-0.61,0.16-0.76-0.41-1.07-0.7c-0.19-0.18,0.11-0.34,0.23-0.49c0.91-1.18,2.17-1.08,3.41-0.87
				c0.97,0.16,1.89,0.41,2.91,0.25c0.82-0.13,1.54,0.25,1.87,1.1c0.09,0.22,0.2,0.34,0.43,0.35c0.68-1.44,0.19-3.08,0.82-4.8
				c0.4,1.8,0.74,3.35,1.09,4.89c0.34,1.47,0.65,2.95,1.17,4.37c0.19,0.51,0.47,0.93,1.13,0.89c0.69-0.04,0.75-0.6,0.82-1.06
				c0.22-1.47,0.33-2.94,0.13-4.43c-0.27-2.05-1.02-3.93-1.82-5.8c-0.44-1.02-0.3-1.89,0.3-2.78C87.87,32.14,88.91,29.74,89.8,27.28
				z M78.38,42.59c0.65,0.35,1.32,0.65,1.03,1.26c-0.28,0.6-1.03,0.43-1.74,0.37C78.01,43.7,78.55,43.36,78.38,42.59z"/>
			<path class="st1" d="M76.06,43.78l0.01,0.01c0,0,0,0,0,0C76.07,43.78,76.06,43.78,76.06,43.78z M60.19,68.6L60.19,68.6
				c0.01,0,0.01,0,0.01,0C60.2,68.59,60.2,68.6,60.19,68.6z"/>
			<path class="st1" d="M82.76,43.02c-0.37,0.59-0.73,1.19-1.09,1.78c-0.4-0.52-1.03-0.9-0.81-1.76c0.13-0.52-0.39-0.92-0.91-0.76
				c-0.19,0.06-0.34,0.05-0.49-0.04c-1.03-0.66-2.21-0.64-3.36-0.65c-0.51-0.01-0.99,0.19-0.89,0.93c0.03,0.26,0.34,0.71-0.23,0.86
				c-0.61,0.16-0.76-0.41-1.07-0.7c-0.19-0.18,0.11-0.34,0.23-0.49c0.91-1.18,2.17-1.08,3.41-0.87c0.97,0.16,1.89,0.41,2.91,0.25
				c0.82-0.13,1.54,0.25,1.87,1.1C82.42,42.89,82.53,43.01,82.76,43.02z"/>
			<path class="st1" d="M46.88,20.94c-0.58,0.95-0.82,2.03-1.07,3.11c-0.07,0.3-0.08,0.64-0.31,0.89c-0.15-1.43,0.44-2.69,1.01-3.91
				c0.24-0.52,0.33-1.08,0.63-1.56C47.3,20.01,47.18,20.46,46.88,20.94z"/>
			<path class="st1" d="M45.1,27.34c-0.09,0.96-0.18,1.91-0.46,2.84C44.5,29.19,44.53,28.22,45.1,27.34z"/>
			<path class="st1" d="M49.12,14.77c-0.2,0.63-0.29,1.3-0.81,1.79C48.47,15.91,48.62,15.26,49.12,14.77z"/>
			<path class="st1" d="M44.47,32.1c-0.18-0.5-0.34-0.99,0.14-1.42C44.55,31.15,44.79,31.65,44.47,32.1z"/>
			<path class="st1" d="M45.15,26.69c-0.1-0.52-0.09-1.02,0.29-1.44C45.47,25.75,45.46,26.25,45.15,26.69z"/>
			<path class="st1" d="M50.55,11.99c-0.03,0.32-0.19,0.57-0.45,0.76C50.08,12.39,50.18,12.11,50.55,11.99z"/>
			<path class="st1" d="M47.25,19.18c-0.14-0.34,0.05-0.55,0.28-0.74C47.56,18.73,47.48,18.98,47.25,19.18z"/>
			<path class="st1" d="M51.28,10.96c-0.02,0.21-0.11,0.35-0.33,0.37C50.94,11.1,51.06,10.99,51.28,10.96z"/>
			<path class="st1" d="M47.91,17.51c-0.08-0.21-0.05-0.37,0.17-0.46C48.15,17.24,48.07,17.39,47.91,17.51z"/>
			<path class="st1" d="M78.38,42.59c0.65,0.35,1.32,0.65,1.03,1.26c-0.28,0.6-1.03,0.43-1.74,0.37
				C78.01,43.7,78.55,43.36,78.38,42.59z"/>
			<polygon class="st1" points="60.19,68.59 60.17,68.62 60.2,68.6 			"/>
			<path class="st1" d="M76.13,43.76c-0.02,0.01-0.04,0.02-0.05,0.03c0,0,0,0,0,0l-0.01-0.01C76.08,43.77,76.1,43.76,76.13,43.76z"
				/>
			<path class="st0" d="M72.22,60.97c-0.43,0.22-0.84,0.35-1.26-0.08c-0.43-0.45-1-0.35-1.55-0.31c-0.21,0.01-0.61,0.22-0.63-0.16
				c-0.01-0.37,0.4-0.19,0.63-0.22c0.14-0.02,0.29,0.01,0.53,0.02c0.64-0.02,1.36,0.31,2.11,0.05c0.2-0.07,0.51-0.05,0.58,0.23
				C72.72,60.8,72.42,60.87,72.22,60.97z"/>
			<path class="st0" d="M63.85,59.19c-1.18,0.38-2.08-0.16-3.04-0.27C61.34,58.51,61.34,58.51,63.85,59.19z"/>
			<path class="st0" d="M60.05,67.93c-0.04-0.03-0.09-0.07-0.13-0.1c0.01-0.12,0.09-0.27,0.2-0.2
				C60.3,67.73,60.18,67.85,60.05,67.93z"/>
			<path class="st0" d="M70.58,69.03c-0.04-0.04-0.09-0.08-0.13-0.12c0.03-0.07,0.08-0.15,0.16-0.08
				C70.64,68.85,70.59,68.96,70.58,69.03z"/>
			<path class="st2" d="M45.68,41.33c-0.35,0.27-0.54,0.68-0.86,0.96c-0.36,0.33-0.67,0.58-0.39,1.12c0.08,0.15-0.02,0.37-0.2,0.42
				c-0.27,0.07-0.23-0.17-0.26-0.33c-0.06-0.28-0.12-0.56-0.17-0.77c0-0.74,1.15-1.9,1.78-1.83C45.91,40.94,45.83,41.21,45.68,41.33
				z"/>
			<path class="st0" d="M45.13,48.43c-0.2,0.17-0.24-0.32-0.26-0.55c-0.06-0.63,0.45-0.58,0.81-0.62c0.31-0.04,0.44,0.12,0.15,0.4
				C46.53,48.66,45.36,48.22,45.13,48.43z"/>
			<path class="st2" d="M45.34,38.74c0.02,0.38-0.3,0.35-0.55,0.37c-0.4,0.01-0.71-0.22-0.74-0.57c-0.02-0.27,0.2-0.69,0.54-0.63
				C44.98,37.98,45.31,38.28,45.34,38.74z"/>
			<path class="st2" d="M45.6,44.71c-0.22-0.23-0.68-0.18-0.7-0.61c0-0.03,0.1-0.09,0.13-0.08C45.36,44.11,45.63,44.28,45.6,44.71z"
				/>
		</g>
	</g>
	<g>
		<path class="st3" d="M11.1,107.77l9.08-7.73c0.24-0.19,0.35-0.38,0.35-0.55c0-0.24-0.2-0.35-0.61-0.35
			c-0.17,0-0.29,0.01-0.35,0.03c-0.77,0.09-1.34,0.13-1.71,0.13c-0.77,0-1.16-0.38-1.16-1.13c0-0.71,0.46-1.06,1.38-1.06
			c0.49,0,0.93,0.02,1.32,0.06l1.71,0.19c0.75,0.09,1.32,0.13,1.71,0.13c0.77,0,1.73-0.09,2.87-0.26c0.58-0.09,1.01-0.13,1.29-0.13
			c0.82,0,1.22,0.37,1.22,1.09c0,0.73-0.38,1.09-1.13,1.09c-0.06,0-0.17,0-0.32,0c-0.15,0-0.27,0-0.35,0c-0.11,0-0.27,0-0.48,0
			c-0.82,0-1.55,0.27-2.19,0.8l-6.09,5.07c-0.26,0.21-0.39,0.41-0.39,0.58c0,0.11,0.11,0.29,0.32,0.55l0.48,0.74l5.15,6.99
			c1.37,1.86,2.4,2.79,3.09,2.79c0.04,0,0.11-0.01,0.19-0.03c0.09,0,0.14,0,0.16,0c0.58-0.06,0.93-0.1,1.06-0.1
			c0.77,0,1.16,0.37,1.16,1.09c0,0.73-0.42,1.09-1.26,1.09l-1.61-0.19c-0.79-0.09-1.7-0.13-2.7-0.13c-1.16,0-2.37,0.06-3.64,0.19
			c-0.84,0.09-1.31,0.13-1.42,0.13c-0.79,0-1.19-0.35-1.19-1.05c0-0.76,0.42-1.14,1.26-1.14c0.24,0,0.57,0.02,1,0.05
			c0.84,0.07,1.32,0.11,1.45,0.11c0.52,0,0.77-0.11,0.77-0.32c0-0.15-0.1-0.35-0.29-0.61l-5.99-8.15c-0.13-0.17-0.25-0.26-0.35-0.26
			c-0.09,0-0.23,0.09-0.42,0.26l-3.38,2.96c-0.02,0.39-0.03,0.83-0.03,1.32c0,1.87,0.01,2.87,0.03,2.99
			c0.17,1.22,0.71,1.84,1.61,1.84c0.13,0,0.36-0.03,0.71-0.1c0.34-0.06,0.63-0.1,0.87-0.1c0.28,0,0.52,0.1,0.71,0.31
			c0.19,0.2,0.29,0.46,0.29,0.76c0,0.75-0.47,1.13-1.42,1.13c-0.04,0-0.12,0-0.23,0c-0.09-0.02-0.16-0.03-0.23-0.03l-1.8-0.26
			c-0.45-0.06-1.15-0.1-2.09-0.1c-0.69,0-1.26,0.03-1.71,0.1l-1.77,0.26c-0.04,0-0.11,0.01-0.19,0.03c-0.09,0-0.15,0-0.19,0
			c-0.97,0-1.45-0.38-1.45-1.14c0-0.7,0.33-1.05,1-1.05c0.19,0,0.48,0.04,0.87,0.12c0.26,0.05,0.48,0.08,0.68,0.08
			c1.07,0,1.61-0.8,1.61-2.41c0,0.04,0.01-0.71,0.03-2.25v-2.83v-2.7v-2.87l-0.03-2.25c0-1.61-0.53-2.41-1.6-2.41
			c-0.21,0-0.44,0.03-0.67,0.08c-0.38,0.05-0.67,0.08-0.86,0.08c-0.68,0-1.02-0.35-1.02-1.06c0-0.75,0.48-1.13,1.44-1.13
			c0.11,0,0.25,0.01,0.42,0.04l1.54,0.21c0.68,0.09,1.26,0.14,1.73,0.14c0.58,0,1.44-0.06,2.6-0.19c1.16-0.13,1.82-0.19,1.99-0.19
			c0.9,0,1.35,0.38,1.35,1.13c0,0.3-0.1,0.55-0.29,0.76c-0.19,0.2-0.43,0.31-0.7,0.31c-0.21,0-0.5-0.03-0.86-0.1
			c-0.15-0.04-0.37-0.06-0.67-0.06c-0.75,0-1.21,0.26-1.41,0.79c-0.19,0.53-0.28,1.81-0.26,3.85V107.77z"/>
		<path class="st3" d="M38.69,96.53c2.1,0,3.82,0.68,5.15,2.03v-0.45c0-0.84,0.33-1.26,1-1.26c0.73,0,1.09,0.46,1.09,1.38v0.19
			c0,0.04-0.03,0.37-0.1,0.97c-0.06,0.6-0.1,1.32-0.1,2.16c0,0.11,0.02,0.45,0.06,1.03l0.1,1.29c0.02,0.11,0.03,0.26,0.03,0.45
			c0,1.03-0.4,1.55-1.19,1.55c-0.84,0-1.26-0.43-1.26-1.29v-0.16l0.06-0.87c0.02-0.3,0.03-0.54,0.03-0.71c0-1.29-0.43-2.3-1.3-3.03
			c-0.87-0.73-2.07-1.09-3.59-1.09c-1.4,0-2.51,0.34-3.33,1.03c-0.83,0.69-1.24,1.61-1.24,2.77c0,1.35,0.61,2.35,1.84,2.99
			c0.69,0.34,1.89,0.66,3.61,0.93c2.55,0.41,4.3,0.97,5.25,1.67c1.42,1.05,2.12,2.54,2.12,4.48c0,2.02-0.72,3.66-2.17,4.93
			c-1.45,1.27-3.31,1.9-5.6,1.9c-2.44,0-4.47-0.77-6.07-2.32c0,0.08,0,0.18,0,0.29c0,0.11,0,0.17,0,0.19
			c0.09,0.34,0.13,0.56,0.13,0.67c0,0.78-0.4,1.17-1.19,1.17c-0.86,0-1.29-0.45-1.29-1.35c0-0.11,0.03-0.19,0.1-0.26l0.15-1.67
			c0.07-0.84,0.11-1.37,0.11-1.61c0-0.43-0.06-1.07-0.18-1.93c-0.12-0.86-0.18-1.5-0.18-1.93c0-0.97,0.41-1.45,1.22-1.45
			c0.84,0,1.26,0.49,1.26,1.45v0.58c0,0.17,0,0.42,0,0.74c0,1.62,0.51,2.9,1.54,3.85c1.03,0.95,2.42,1.42,4.17,1.42
			c1.63,0,2.92-0.39,3.88-1.16c0.96-0.77,1.44-1.82,1.44-3.16c0-2.04-1.29-3.28-3.86-3.73l-1.84-0.32c-1.82-0.32-3.24-0.7-4.25-1.13
			c-0.92-0.41-1.66-1.05-2.21-1.92c-0.55-0.87-0.82-1.85-0.82-2.95c0-1.89,0.69-3.42,2.06-4.6C34.72,97.12,36.5,96.53,38.69,96.53z"
			/>
	</g>
</g>
</svg>
